<svg xmlns="http://www.w3.org/2000/svg" version="1.1" id="Layer_1" x="0" y="0" viewBox="0 0 297.98 421.74" enable-background="new 0 0 297.979 421.738" xml:space="preserve"><style>.s0{stop-color:#F0F5FF;}.s1{stop-color:#DCE6FF;}.s2{stop-color:#FFFFFF;}.s3{stop-color:#FFC654;}.s4{stop-color:#FFDA3F;}.s5{stop-color:#FFAF3F;}.s6{stop-color:#F4EFE4;}</style><g><linearGradient id="SVGID_1_" gradientUnits="userSpaceOnUse" x1="0" y1="209.35" x2="297.47" y2="209.35"><stop offset="0.29" stop-color="#F0F5FF"/><stop offset="0.75" stop-color="#DCE6FF"/><stop offset="1" stop-color="#F0F5FF"/></linearGradient><path fill="url(#SVGID_1_)" d="M297.38 30.48c0 0 1-10.82-3.41-15.24 -4.42-4.42-17.27-6.09-17.27-6.09S242.55 0 149.04 0C55.52 0 12.73 9.14 12.73 9.14S7.19 11.3 3.25 15.24c-3.94 3.94-3.2 15.24-3.2 15.24l41.72 355.52c0 0 0.64 9.02 7.62 16s22.38 16.7 110.84 16.7c70.01 0 89.62-11.11 95.2-16.7 5.59-5.59 6.1-17.52 6.1-17.52L297.38 30.48z"/><linearGradient id="SVGID_2_" gradientUnits="userSpaceOnUse" x1="2.11" y1="233.06" x2="296.58" y2="233.06"><stop offset="0.12" stop-color="#F0F5FF"/><stop offset="0.29" stop-color="#DCE1FF"/><stop offset="0.75" stop-color="#DCE6FF"/><stop offset="1" stop-color="#EBE6FF"/></linearGradient><path fill="url(#SVGID_2_)" d="M261.54 343.33c0 0-0.51 11.94-6.09 17.52 -5.59 5.59-25.19 16.7-95.2 16.7 -88.46 0-103.86-9.71-110.84-16.7s-7.62-16-7.62-16L5.17 47.72l-3.06 0.03 39.67 341.29c0 0 0.64 9.02 7.62 16 6.98 6.98 22.38 16.7 110.84 16.7 70.01 0 89.62-11.11 95.2-16.7 5.59-5.59 6.1-17.52 6.1-17.52L296.58 44.38l-2.58 0.03L261.54 343.33z"/><linearGradient id="SVGID_3_" gradientUnits="userSpaceOnUse" x1="0.5" y1="209.35" x2="297.98" y2="209.35"><stop offset="0.12" stop-color="#FFFFFF"/><stop offset="0.29" stop-color="#F0F5FF"/><stop offset="0.75" stop-color="#E6EBFF"/><stop offset="1" stop-color="#FFFFFF"/></linearGradient><path fill="url(#SVGID_3_)" d="M297.88 30.48c0 0 1-10.82-3.41-15.24 -4.42-4.42-17.27-6.09-17.27-6.09S243.06 0 149.54 0C56.03 0 13.23 9.14 13.23 9.14s-5.54 2.16-9.48 6.1S0.56 30.48 0.56 30.48L42.28 385.99c0 0 0.64 9.02 7.62 16s22.38 16.7 110.84 16.7c70.01 0 89.62-11.11 95.2-16.7 5.59-5.59 6.1-17.52 6.1-17.52L297.88 30.48zM259.68 379.75c0 0-0.5 11.72-5.98 17.21 -5.49 5.49-24.4 16.4-93.15 16.4 -86.87 0-101.66-9.54-108.52-16.4 -6.86-6.86-7.48-15.71-7.48-15.71L3.48 35.26c0 0-0.73-11.1 3.14-14.96 3.87-3.87 9.22-5.98 9.22-5.98s41.88-8.98 133.71-8.98c91.83 0 126.11 8.98 126.11 8.98s11.62 1.65 15.96 5.99c4.34 4.34 3.35 14.96 3.35 14.96L259.68 379.75z"/><linearGradient id="SVGID_4_" gradientUnits="userSpaceOnUse" x1="23.59" y1="214.94" x2="277.14" y2="214.94"><stop offset="0.29" stop-color="#FFC654"/><stop offset="0.75" stop-color="#FFDA3F"/><stop offset="1" stop-color="#FFAF3F"/></linearGradient><polygon fill="url(#SVGID_4_)" points="23.59 70.86 54.94 359.78 247.83 359.78 277.14 70.1 "/><linearGradient id="SVGID_5_" gradientUnits="userSpaceOnUse" x1="54.65" y1="358.82" x2="247.83" y2="358.82"><stop offset="0" stop-color="#FFC654"/><stop offset="0.83" stop-color="#FFDA3F"/><stop offset="1" stop-color="#FFAF3F"/></linearGradient><path fill="url(#SVGID_5_)" d="M247.83 358.82c0-7.9-32.53-14.3-96.09-14.3s-97.09 6.4-97.09 14.3c0 7.9 33.53 14.3 97.09 14.3S247.83 366.71 247.83 358.82z"/><linearGradient id="SVGID_6_" gradientUnits="userSpaceOnUse" x1="21.91" y1="75.5" x2="277.4" y2="75.5"><stop offset="0" stop-color="#F4EFE4"/><stop offset="0.78" stop-color="#FFFFFF"/><stop offset="1" stop-color="#F4EFE4"/></linearGradient><path fill="url(#SVGID_6_)" d="M277.2 70.08l0.2-6.57c0-8.1-5.33-13.54-12.94-13.54 -5.22 0-9.76 3.1-12.09 7.67 -2.05-5.36-6.98-9.14-12.74-9.14 -4.85 0-9.1 2.67-11.55 6.7 -3.19-4.03-3.52-9.04-8.47-11.03 -3.78-1.52-9.84 0.46-11.75 3.2 -2.31-1.86-5.17-4.4-8.29-4.4 -1.23 0-2.41 0.19-3.54 0.51 -2.52-3.01-6.18-4.92-10.27-4.92 -4.13 0-7.83 1.95-10.35 5.02 -2.53-3.07-6.22-5.02-10.35-5.02 -5.49 0-10.21 3.43-12.42 8.38 -2.21-4.95-6.94-8.38-12.42-8.38 -3.77 0-7.18 1.61-9.66 4.23 -2.49-2.61-5.9-4.23-9.66-4.23 -4.53 0-8.53 2.34-11.04 5.94 -2.51-3.6-6.52-5.94-11.04-5.94 -4.06 0-7.69 1.88-10.21 4.86 -1.61-6.19-6.93-6.48-13.25-6.48 -4.24 0-8.02 3.46-10.55 6.67 -2.14-1.45-4.67-2.31-7.4-2.31 -6.09 0-11.24 4.22-13.06 10.06 -2.41-4.26-3.92-7.11-8.92-7.11 -7.6 0-13.5 6.57-13.5 14.67 0 1.67 3.08 49 3.08 49l5.02-0.6c1.48 1.42 3.63 3.1 6.68 3.1 3.06 0 5.87-1.63 8.15-2.63h4.4c2.28 1 5.1 2.87 8.15 2.87 3.06 0 5.87-1.87 8.15-2.87h8.55c2.28 1 5.1 2.87 8.15 2.87 3.05 0 5.87-1.87 8.15-2.87h8.55c2.28 1 5.1 1.99 8.15 1.99 2.52 0 4.87-1.17 6.9-2.43 2.03 1.26 4.38 2.65 6.9 2.65 3.06 0 5.87-1.21 8.15-2.21h3.02c2.28 1 5.1 2.87 8.15 2.87 3.05 0 5.87-1.87 8.15-2.87h7.17c2.28 1 5.1 2.87 8.15 2.87 3.05 0 5.87-1.87 8.15-2.87h0.26c2.28 1 5.1 1.99 8.15 1.99 1.97 0 3.83-0.88 5.52-1.67 1.69 0.79 3.56 1.9 5.52 1.9 3.06 0 5.87-1.21 8.15-2.21h2.98c2.52 2 6.48 5.81 10.95 5.81 4.47 0 8.44-3.81 10.95-5.81h2.94c2.52 2 6.48 4.93 10.96 4.93 3.55 0 6.77-1.88 9.22-4.23 1.38 0.52 2.86 0.6 4.41 0.62 2.5 2.73 5.93 4.96 9.79 4.96 5.07 0 10.39-2.48 13.09-6.73l0 0L277.2 70.08z"/></g>

<circle fill="#F4EFE4" cx="130.15" cy="328.28" r="8.5">
	<animateTransform attributeName="transform"
                          type="translate"
                          from="0,0"
                          to="0,-220"
                          dur="3s"
                          repeatCount="indefinite"
                          id="bubble-1-move"/>

    <animate attributeName="opacity"
                          from="1"
                          to="0"
                          dur="3s"
                          values="1; 0; 1"
    					  keyTimes="0; 0.5; 1"
                          repeatCount="indefinite"
                          begin="bubble-1-move.begin + 1.5s"
                           />
</circle>
<circle fill="#F4EFE4" cx="79.94" cy="211.08" r="5.3">
	<animateTransform attributeName="transform"
                          type="translate"
                          from="0,0"
                          to="0,-120"
                          dur="2s"
                          repeatCount="indefinite"
                          id="bubble-1-move"/>

    <animate attributeName="opacity"
                          from="1"
                          to="0"
                          dur="2s"
                          values="1; 0; 1"
    					  keyTimes="0; 0.5; 1"
                          repeatCount="indefinite"
                          begin="bubble-1-move.begin + 1s"
                           />
</circle>
<circle fill="#F4EFE4" cx="108.32" cy="256.98" r="6.67">
	<animateTransform attributeName="transform"
                          type="translate"
                          from="0,0"
                          to="0,-100"
                          dur="2s"
                          repeatCount="indefinite"
                          id="bubble-1-move"/>

    <animate attributeName="opacity"
                          from="1"
                          to="0"
                          dur="2s"
                          values="1; 0; 1"
    					  keyTimes="0; 0.5; 1"
                          repeatCount="indefinite"
                          begin="bubble-1-move.begin + 1s"
                           />
</circle>
<circle fill="#F4EFE4" cx="98.07" cy="139.73" r="4.42">
	<animateTransform attributeName="transform"
                          type="translate"
                          from="0,0"
                          to="0,-40"
                          dur="1.5s"
                          repeatCount="indefinite"
                          id="bubble-1-move"/>

    <animate attributeName="opacity"
                          from="1"
                          to="0"
                          dur="1.5s"
                          values="1; 0; 1"
    					  keyTimes="0; 0.5; 1"
                          repeatCount="indefinite"
                          begin="bubble-1-move.begin + .75s"
                           />
</circle>
<circle fill="#F4EFE4" cx="68.81" cy="169.47" r="3.16">
	<animateTransform attributeName="transform"
                          type="translate"
                          from="0,0"
                          to="0,-70"
                          dur="3s"
                          repeatCount="indefinite"
                          id="bubble-1-move"/>

    <animate attributeName="opacity"
                          from="1"
                          to="0"
                          dur="3s"
                          values="1; 0; 1"
    					  keyTimes="0; 0.5; 1"
                          repeatCount="indefinite"
                          begin="bubble-1-move.begin + 1.5s"
                           />
</circle>
<circle fill="#F4EFE4" cx="88.38" cy="296.05" r="5.74">
	<animateTransform attributeName="transform"
                          type="translate"
                          from="0,0"
                          to="0,-100"
                          dur="3s"
                          repeatCount="indefinite"
                          id="bubble-1-move"/>

    <animate attributeName="opacity"
                          from="1"
                          to="0"
                          dur="3s"
                          values="1; 0; 1"
    					  keyTimes="0; 0.5; 1"
                          repeatCount="indefinite"
                          begin="bubble-1-move.begin + 1.5s"
                           />
</circle>

</svg>