<svg xmlns="http://www.w3.org/2000/svg" version="1.1" id="Layer_1" x="0" y="0" viewBox="0 0 335.24 595.74"  xml:space="preserve"><style>.s0{stop-color:#F0F5FF;}.s1{stop-color:#DCE6FF;}.s2{stop-color:#FFC654;}.s3{stop-color:#FFDA3F;}.s4{stop-color:#FFAF3F;}.s5{stop-color:#FFFFFF;}.s6{stop-color:#F4EFE4;}circle{transform-origin:center;}</style><g><linearGradient id="SVGID_1_" gradientUnits="userSpaceOnUse" x1="-0.5" y1="296.35" x2="335.24" y2="296.35"><stop offset="0.29" stop-color="#F0F5FF"/><stop offset="0.75" stop-color="#DCE6FF"/><stop offset="1" stop-color="#F0F5FF"/></linearGradient><path fill="url(#SVGID_1_)" d="M335.24 151.87c0-18.78-3.64-36.22-9.86-50.68l4.13-70.72c0 0 1-10.82-3.41-15.24 -4.42-4.42-17.27-6.09-17.27-6.09S260.69 0 167.17 0 22.86 9.14 22.86 9.14 12.32 11.3 8.39 15.24c-3.94 3.94-3.2 15.24-3.2 15.24l4.81 69.31C3.39 114.51-0.5 132.47-0.5 151.87c0 26.48 7.23 50.3 18.74 66.83l23.67 341.29c0 0 0.64 9.02 7.62 16s40.38 16.7 128.84 16.7c70.01 0 108.62-11.11 114.2-16.7 5.59-5.59 6.1-17.52 6.1-17.52l20.05-343.13C328.93 199.01 335.24 176.61 335.24 151.87z"/><linearGradient id="SVGID_2_" gradientUnits="userSpaceOnUse" x1="54.78" y1="532.82" x2="284.97" y2="532.82"><stop offset="0" stop-color="#FFC654"/><stop offset="0.83" stop-color="#FFDA3F"/><stop offset="1" stop-color="#FFAF3F"/></linearGradient><ellipse fill="url(#SVGID_2_)" cx="169.87" cy="532.82" rx="115.09" ry="14.3"/><linearGradient id="SVGID_3_" gradientUnits="userSpaceOnUse" x1="0" y1="296.35" x2="335.74" y2="296.35"><stop offset="0.12" stop-color="#FFFFFF"/><stop offset="0.29" stop-color="#F0F5FF"/><stop offset="0.75" stop-color="#E6EBFF"/><stop offset="1" stop-color="#FFFFFF"/></linearGradient><path fill="url(#SVGID_3_)" d="M325.88 101.19l4.13-70.72c0 0 1-10.82-3.41-15.24 -4.42-4.42-17.27-6.09-17.27-6.09S261.19 0 167.67 0C74.16 0 23.37 9.14 23.37 9.14S12.83 11.3 8.89 15.24 5.69 30.48 5.69 30.48l4.81 69.31C3.89 114.51 0 132.47 0 151.87c0 26.48 7.23 50.3 18.74 66.83l23.67 341.29c0 0 0.64 9.02 7.62 16 6.98 6.98 40.38 16.7 128.84 16.7 70.01 0 108.62-11.11 114.2-16.7 5.59-5.59 6.1-17.52 6.1-17.52l20.05-343.13c10.22-16.32 16.53-38.73 16.53-63.46C335.74 133.09 332.1 115.65 325.88 101.19zM316.49 216.79l-19.68 336.96c0 0-0.5 11.72-5.98 17.21 -5.49 5.49-43.4 16.4-112.15 16.4 -86.87 0-119.66-9.54-126.52-16.4 -6.86-6.86-7.48-15.71-7.48-15.71L21.43 220.1c-11.31-16.24-18.41-39.63-18.41-65.63 0-19.05 3.82-36.69 10.31-51.15l-4.72-68.06c0 0-0.73-11.1 3.14-14.96 3.87-3.87 14.22-5.98 14.22-5.98s49.88-8.98 141.71-8.98c91.83 0 139.1 8.98 139.1 8.98s12.62 1.65 16.96 5.99c4.34 4.34 3.35 14.96 3.35 14.96l-4.05 69.44c6.11 14.2 9.68 31.32 9.68 49.77C332.72 178.76 326.52 200.76 316.49 216.79z"/><linearGradient id="SVGID_4_" gradientUnits="userSpaceOnUse" x1="18.24" y1="407.06" x2="318.71" y2="407.06"><stop offset="0.12" stop-color="#F0F5FF"/><stop offset="0.29" stop-color="#DCE1FF"/><stop offset="0.75" stop-color="#DCE6FF"/><stop offset="1" stop-color="#EBE6FF"/></linearGradient><path fill="url(#SVGID_4_)" d="M298.67 517.33c0 0-0.51 11.94-6.09 17.52 -5.59 5.59-44.19 16.7-114.2 16.7 -88.46 0-121.86-9.71-128.84-16.7s-7.62-16-7.62-16L21.3 221.72l-3.06 0.03 23.67 341.29c0 0 0.64 9.02 7.62 16 6.98 6.98 40.38 16.7 128.84 16.7 70.01 0 108.62-11.11 114.2-16.7 5.59-5.59 6.1-17.52 6.1-17.52l20.05-343.13 -2.58 0.03L298.67 517.33z"/><linearGradient id="SVGID_5_" gradientUnits="userSpaceOnUse" x1="13.46" y1="315.78" x2="320.76" y2="315.78"><stop offset="0.29" stop-color="#FFC654"/><stop offset="0.75" stop-color="#FFDA3F"/><stop offset="1" stop-color="#FFAF3F"/></linearGradient><path fill="url(#SVGID_5_)" d="M320.76 155.43c0-19.65-5.39-37.21-13.98-49.55l0.5-8.09H26.41l0.64 8.69c-8.36 12.32-13.58 29.68-13.58 49.03 0 24.77 5.51 46.6 18.26 58.37L55.07 533.78h229.89l18.31-320.68C315.6 201.19 320.76 179.69 320.76 155.43z"/><linearGradient id="SVGID_6_" gradientUnits="userSpaceOnUse" x1="19.75" y1="72.49" x2="310.82" y2="72.49"><stop offset="0" stop-color="#F4EFE4"/><stop offset="0.78" stop-color="#FFFFFF"/><stop offset="1" stop-color="#F4EFE4"/></linearGradient><path fill="url(#SVGID_6_)" d="M310.6 66.68l0.23-7.06c0-8.7-6.01-14.54-14.58-14.54 -5.88 0-11 3.33-13.62 8.23 -2.31-5.75-7.86-9.81-14.36-9.81 -5.46 0-10.25 2.87-13.01 7.2 -3.59-4.33-3.97-9.71-9.54-11.84 -4.26-1.63-11.08 0.49-13.24 3.44 -2.6-2-5.83-4.72-9.34-4.72 -1.38 0-2.71 0.2-3.98 0.54 -2.84-3.23-6.97-5.28-11.57-5.28 -4.65 0-8.82 2.09-11.66 5.39 -2.85-3.3-7.01-5.39-11.67-5.39 -6.18 0-11.5 3.68-14 9 -2.49-5.32-7.81-9-14-9 -4.24 0-8.09 1.73-10.89 4.54 -2.8-2.8-6.64-4.54-10.89-4.54 -5.1 0-9.61 2.51-12.44 6.38 -2.83-3.86-7.34-6.37-12.44-6.37 -4.57 0-8.67 2.02-11.51 5.22 -1.82-6.65-7.81-6.96-14.93-6.96 -4.77 0-9.04 3.72-11.88 7.16 -2.41-1.56-5.26-2.48-8.33-2.48 -6.86 0-12.67 4.53-14.72 10.8 -2.71-4.57-7.64-7.64-13.28-7.64 -8.57 0-15.21 7.06-15.21 15.76 0 1.8 6.69 52.62 6.69 52.62l5.65-0.64c1.67 1.52 4.09 3.14 7.53 3.14s6.61-2.02 9.18-3.02h4.96c2.57 1 5.74 3.08 9.18 3.08 3.44 0 6.61-2.08 9.18-3.08h9.63c2.57 1 5.74 3.08 9.18 3.08s6.61-2.08 9.18-3.08h9.63c2.57 1 5.74 2.33 9.19 2.33 2.84 0 5.49-1.16 7.78-2.51 2.29 1.35 4.94 2.7 7.78 2.7 3.44 0 6.61-1.52 9.18-2.52h3.41c2.57 1 5.74 3.08 9.18 3.08 3.44 0 6.61-2.08 9.18-3.08h8.07c2.57 1 5.74 3.08 9.18 3.08 3.44 0 6.61-2.08 9.18-3.08h0.3c2.57 1 5.74 2.33 9.18 2.33 2.22 0 4.32-0.85 6.22-1.7 1.91 0.85 4.01 1.89 6.22 1.89 3.44 0 6.61-1.52 9.18-2.52h3.36c2.83 3 7.3 6.24 12.34 6.24 5.04 0 9.51-3.24 12.34-6.24h3.31c2.83 3 7.3 5.49 12.34 5.49 4 0 7.63-1.92 10.38-4.45 1.56 0.56 3.23 0.7 4.97 0.72 2.82 2.93 6.68 5.35 11.03 5.35 5.71 0 11.7-2.65 14.75-7.22l0 0L310.6 66.68z"/></g>

<circle id="bubble-1" fill="#F4EFE4" cx="131.28" cy="506.28" r="8.5">
	<animateTransform attributeName="transform"
                          type="translate"
                          from="0,0"
                          to="0,-410"
                          dur="5s"
                          repeatCount="indefinite"
                          id="bubble-1-move"/>

    <animate attributeName="opacity"
                          from="1"
                          to="0"
                          dur="5s"
                          values="1; 0; 1"
    					  keyTimes="0; 0.5; 1"
                          repeatCount="indefinite"
                          begin="bubble-1-move.begin + 2.5s"
                           />
</circle>
<circle fill="#F4EFE4" cx="81.08" cy="389.08" r="5.3">
	<animateTransform attributeName="transform"
                          type="translate"
                          from="0,0"
                          to="0,-330"
                          dur="4s"
                          repeatCount="indefinite"
                          id="bubble-4-move"/>

    <animate attributeName="opacity"
                          from="1"
                          to="0"
                          dur="4s"
                          values="1; 0; 1"
    					  keyTimes="0; 0.5; 1"
                          repeatCount="indefinite"
                          begin="bubble-4-move.begin + 2s"
                           />
</circle>
<circle fill="#F4EFE4" cx="107.08" cy="186.08" r="5.3">
	<animateTransform attributeName="transform"
                          type="translate"
                          from="0,0"
                          to="0,-100"
                          dur="2s"
                          repeatCount="indefinite"
                          id="bubble-8-move"/>

    <animate attributeName="opacity"
                          from="1"
                          to="0"
                          dur="2s"
                          values="1; 0; 1"
    					  keyTimes="0; 0.5; 1"
                          repeatCount="indefinite"
                          begin="bubble-8-move.begin + 1s"
                           />
</circle>
<circle fill="#F4EFE4" cx="109.45" cy="434.98" r="6.67">
	<animateTransform attributeName="transform"
                          type="translate"
                          from="0,0"
                          to="0,-350"
                          dur="4s"
                          repeatCount="indefinite"
                          id="bubble-3-move"/>

    <animate attributeName="opacity"
                          from="1"
                          to="0"
                          dur="4s"
                          values="1; 0; 1"
    					  keyTimes="0; 0.5; 1"
                          repeatCount="indefinite"
                          begin="bubble-3-move.begin + 2s"
                           />
</circle>
<circle fill="#F4EFE4" cx="99.2" cy="317.73" r="4.42">
	<animateTransform attributeName="transform"
                          type="translate"
                          from="0,0"
                          to="0,-300"
                          dur="4s"
                          repeatCount="indefinite"
                          id="bubble-5-move"/>

    <animate attributeName="opacity"
                          from="1"
                          to="0"
                          dur="4s"
                          values="1; 0; 1"
    					  keyTimes="0; 0.5; 1"
                          repeatCount="indefinite"
                          begin="bubble-5-move.begin + 2s"
                           />
</circle>
<circle fill="#F4EFE4" cx="79.94" cy="245.47" r="3.16">
	<animateTransform attributeName="transform"
                          type="translate"
                          from="0,0"
                          to="0,-280"
                          dur="3s"
                          repeatCount="indefinite"
                          id="bubble-6-move"/>

    <animate attributeName="opacity"
                          from="1"
                          to="0"
                          dur="3s"
                          values="1; 0; 1"
    					  keyTimes="0; 0.5; 1"
                          repeatCount="indefinite"
                          begin="bubble-6-move.begin + 1.5s"
                           />
</circle>
<circle fill="#F4EFE4" cx="69.94" cy="151.47" r="3.16">
	<animateTransform attributeName="transform"
                          type="translate"
                          from="0,0"
                          to="0,-50"
                          dur="1s"
                          repeatCount="indefinite"
                          id="bubble-7-move"/>

    <animate attributeName="opacity"
                          from="1"
                          to="0"
                          dur="1s"
                          values="1; 0; 1"
    					  keyTimes="0; 0.5; 1"
                          repeatCount="indefinite"
                          begin="bubble-7-move.begin + .5s"
                           />
</circle>
<circle fill="#F4EFE4" cx="89.51" cy="474.05" r="5.74">
	<animateTransform attributeName="transform"
                          type="translate"
                          from="0,0"
                          to="0,-390"
                          dur="6s"
                          repeatCount="indefinite"
                          id="bubble-2-move"/>

    <animate attributeName="opacity"
                          from="1"
                          to="0"
                          dur="6s"
                          values="1; 0; 1"
    					  keyTimes="0; 0.5; 1"
                          repeatCount="indefinite"
                          begin="bubble-2-move.begin + 3s"
                           />
</circle>
</svg>