<svg xmlns="http://www.w3.org/2000/svg" version="1.1" id="Layer_1" x="0" y="0" viewBox="0 0 217.55 609.22" enable-background="new 0 0 217.545 609.217" xml:space="preserve"><style>.s0{stop-color:#F0F5FF;}.s1{stop-color:#DCE1FF;}.s2{stop-color:#DCE6FF;}.s3{stop-color:#BF9500;}.s4{stop-color:#FFB815;}.s5{stop-color:#FAB513;}circle{transform-origin:center;}</style><g><linearGradient id="SVGID_1_" gradientUnits="userSpaceOnUse" x1="-0.37" y1="595.34" x2="217.54" y2="595.34"><stop offset="0.12" stop-color="#F0F5FF"/><stop offset="0.29" stop-color="#DCE1FF"/><stop offset="0.75" stop-color="#DCE6FF"/><stop offset="1" stop-color="#EBE6FF"/></linearGradient><path fill="url(#SVGID_1_)" d="M217.32 593.62c0.13-0.23 0.22-0.61 0.22-0.84 0-6.2-48.78-11.31-108.96-11.31 -60.17 0-108.95 4.99-108.95 11.19 0 0.23 0.09 0.45 0.23 0.68l1.43 4.35c0 6.2 48.03 11.53 107.28 11.53 58.8 0 106.52-6.79 107.25-10.79h0.03L217.32 593.62z"/><linearGradient id="SVGID_2_" gradientUnits="userSpaceOnUse" x1="0" y1="601.48" x2="217.22" y2="601.48"><stop offset="0" stop-color="#DCE6FF"/><stop offset="0.17" stop-color="#DCE1FF"/><stop offset="1" stop-color="#E1DCFF"/></linearGradient><path fill="url(#SVGID_2_)" d="M108.58 604.27c-56.75 0-103.36-4.7-108.58-10.52l1.3 3.93c0 6.21 48.03 11.54 107.28 11.54 58.8 0 106.52-6.79 107.25-10.79h0.03l1.36-4.48C212.57 598.85 165.74 604.27 108.58 604.27z"/><linearGradient id="SVGID_3_" gradientUnits="userSpaceOnUse" x1="24.43" y1="297.43" x2="194.27" y2="297.43"><stop offset="0.29" stop-color="#F0F5FF"/><stop offset="0.75" stop-color="#DCE6FF"/><stop offset="1" stop-color="#F0F5FF"/></linearGradient><path fill="url(#SVGID_3_)" d="M124.19 547.69c-1.58-15.76-6.22-56.02-6.22-104.01 0-52.4 3.67-76.23 4.36-80.25h0.02c0 0 2.5-14.37 11.25-32.5 5.55-11.49 18.83-30.5 20.09-32.27 0.03-0.04 0.05-0.23 0.05-0.23h-0.01c24.32-34 40.53-95.52 40.53-165.67 0-50.53-8.42-96.48-22.21-131.07C160.37 0.62 137.34 0 110.82 0c-29.09 0-53.99 0.82-64.31 2.08C32.8 36.63 24.43 82.54 24.43 132.92c0 69.93 16.11 131.23 40.3 165.51h0c0 0 0.01 0.01 0.03 0.03 1.23 1.74 13.61 19.98 19.71 33.36 9.86 21.64 11.64 31.52 11.64 31.52s3.34 26.98 3.34 80.9c0 44.94-3.51 87.26-4.68 103.45 0 0-2.34 14.32-8.8 20.78s-43.81 19.66-43.81 19.66 2.81 6.74 67.4 6.74c64.59 0 67.4-6.74 67.4-6.74s-37.35-12.07-44.93-19.66C124.44 560.89 124.19 547.69 124.19 547.69z"/><linearGradient id="SVGID_4_" gradientUnits="userSpaceOnUse" x1="23.79" y1="206.63" x2="188.26" y2="206.63"><stop offset="0" stop-color="#FFD53F"/><stop offset="0.28" stop-color="#FFE794"/><stop offset="0.82" stop-color="#FFD054"/></linearGradient><path fill="url(#SVGID_4_)" d="M129.37 329.01c5.68-10.63 14.94-24.59 14.94-24.59l-0.02-0.01c22.81-27.77 50.73-78.65 42.5-220.71 -16.59-0.58-54.48-0.95-81.98-0.95 -31.7 0-62.44 0.49-78.59 1.24C15.69 212.43 41.87 262.42 59.96 292.45l0 0c0 0 0.03 0.05 0.08 0.13 0.1 0.17 0.21 0.34 0.31 0.51 1.59 2.57 15.59 23.04 23.24 35.87 0 0 7.87 1.55 21.07 1.55C117.86 330.51 129.37 329.01 129.37 329.01z"/><linearGradient id="SVGID_5_" gradientUnits="userSpaceOnUse" x1="107.05" y1="297.43" x2="194.27" y2="297.43"><stop offset="0" stop-color="#EAECFF"/><stop offset="0.66" stop-color="#C9D5FF"/></linearGradient><path fill="url(#SVGID_5_)" d="M124.19 547.69c-1.58-15.76-6.22-56.02-6.22-104.01 0-52.4 3.67-76.23 4.36-80.25h0.02c0 0 2.5-14.37 11.25-32.5 5.55-11.49 18.83-30.5 20.09-32.27 0.03-0.04 0.05-0.23 0.05-0.23h-0.01c24.32-34 40.53-95.52 40.53-165.67 0-50.53-8.42-96.48-22.21-131.07C160.37 0.62 137.34 0 110.82 0c-0.8 0-1.6 0-2.4 0 25.42 0.04 47.34 0.66 58.64 1.69 13.8 34.58 22.21 80.53 22.21 131.07 0 70.15-16.22 131.67-40.53 165.67h0.01c0 0-0.02 0.19-0.05 0.23 -1.26 1.77-14.54 20.78-20.09 32.27 -8.75 18.13-11.25 32.5-11.25 32.5h-0.02c-0.69 4.03-4.36 27.85-4.36 80.25 0 47.99 4.64 88.25 6.22 104.01 0 0 0.24 13.2 7.83 20.78 7.58 7.58 44.93 19.66 44.93 19.66s-2.74 6.56-64.9 6.73c0.82 0 1.65 0 2.5 0 64.59 0 67.4-6.74 67.4-6.74s-37.35-12.07-44.93-19.66C124.44 560.89 124.19 547.69 124.19 547.69z"/><path fill="#FFFFFF" d="M46.16 588.13c0 0 37.35-13.2 43.81-19.66s8.8-20.78 8.8-20.78c1.17-16.18 4.68-58.51 4.68-103.45 0-53.92-3.34-80.9-3.34-80.9s-1.78-9.88-11.64-31.52c-6.09-13.38-18.48-31.62-19.71-33.36 -0.02-0.02-0.02-0.03-0.02-0.03h0c-24.18-34.28-40.3-95.59-40.3-165.51 0-50.38 8.36-96.29 22.08-130.84 10.1-1.23 34.17-2.04 62.48-2.08C112.27 0 111.55 0 110.82 0c-29.09 0-53.99 0.82-64.31 2.08C32.8 36.63 24.43 82.54 24.43 132.92c0 69.93 16.11 131.23 40.3 165.51h0c0 0 0.01 0.01 0.03 0.03 1.23 1.74 13.61 19.98 19.71 33.36 9.86 21.64 11.64 31.52 11.64 31.52s3.34 26.98 3.34 80.9c0 44.94-3.51 87.26-4.68 103.45 0 0-2.34 14.32-8.8 20.78s-43.81 19.66-43.81 19.66 2.81 6.74 67.4 6.74c0.68 0 1.34 0 2 0C48.91 594.72 46.16 588.13 46.16 588.13z"/><linearGradient id="SVGID_6_" gradientUnits="userSpaceOnUse" x1="24.43" y1="203.43" x2="84.21" y2="203.43"><stop offset="0" stop-color="#BF9500"/><stop offset="0.58" stop-color="#FFB815"/><stop offset="1" stop-color="#BF9500"/></linearGradient><path fill="url(#SVGID_6_)" d="M27.21 83.43c-1.81 15.8-2.77 32.39-2.77 49.49 0 69.93 16.11 131.23 40.3 165.51h0c0 0 0.01 0.01 0.03 0.03 0.98 1.4 9.13 13.38 15.46 24.97h4c-6.33-11.59-14.48-23.57-15.46-24.97 -0.02-0.02-0.02-0.03-0.02-0.03h0c-24.18-34.28-40.3-95.59-40.3-165.51 0-17.1 0.97-33.68 2.78-49.49H27.21z"/><linearGradient id="SVGID_7_" gradientUnits="userSpaceOnUse" x1="108.72" y1="369.43" x2="108.72" y2="318.87"><stop offset="0" style="stop-color:#FFE0A9;stop-opacity:0"/><stop offset="0.36" style="stop-color:#BDCCD4;stop-opacity:0.6"/><stop offset="1" stop-color="#FFD26A"/></linearGradient><path fill="url(#SVGID_7_)" d="M121.59 368.53c0.34-2.59 0.61-4.27 0.75-5.1h0.02c0 0 2.5-14.37 11.25-32.5 1.58-3.28 3.8-7.17 6.19-11.1 -8.14 5.89-18.78 9.47-30.43 9.47 -12.27 0-23.42-3.96-31.71-10.42 2.53 4.37 4.96 8.89 6.81 12.95 9.86 21.64 11.64 31.52 11.64 31.52s0.21 1.68 0.52 5.05c4.21 0.68 8.53 1.04 12.93 1.04C113.64 369.43 117.66 369.12 121.59 368.53z"/><linearGradient id="SVGID_8_" gradientUnits="userSpaceOnUse" x1="126.52" y1="209.43" x2="194.27" y2="209.43"><stop offset="0" stop-color="#BF9500"/><stop offset="0.58" stop-color="#FFB815"/><stop offset="1" stop-color="#BF9500"/></linearGradient><path fill="url(#SVGID_8_)" d="M189.27 132.76c0 70.15-16.22 131.67-40.53 165.67h0.01c0 0-0.02 0.19-0.05 0.23 -1.26 1.77-14.54 20.78-20.09 32.27 -0.74 1.53-1.43 3.03-2.08 4.5h5c0.65-1.47 1.34-2.97 2.08-4.5 5.55-11.49 18.83-30.5 20.09-32.27 0.03-0.04 0.05-0.23 0.05-0.23h-0.01c24.32-34 40.53-95.52 40.53-165.67 0-17.05-0.96-33.58-2.76-49.33h-5C188.31 99.18 189.27 115.71 189.27 132.76z"/><linearGradient id="SVGID_9_" gradientUnits="userSpaceOnUse" x1="117.7" y1="346.42" x2="143.67" y2="341.84"><stop offset="0.01" stop-color="#FAB513"/><stop offset="0.16" stop-color="#BF9500"/><stop offset="1" stop-color="#BF9500"/></linearGradient><path fill="url(#SVGID_9_)" d="M132.14 324.31c-1.34 2.35-2.56 4.6-3.53 6.62 -8.75 18.13-7.25 25.5-7.25 25.5l0.23 12 0 0c0 0 0.61-4.17 0.75-5h0.02c0 0 2.5-14.37 11.25-32.5 1.58-3.28 3.8-7.17 6.19-11.1C137.44 321.52 134.87 323.03 132.14 324.31z"/><linearGradient id="SVGID_10_" gradientUnits="userSpaceOnUse" x1="82.17" y1="344.53" x2="94.13" y2="342.42"><stop offset="0.01" stop-color="#FAB513"/><stop offset="0.16" stop-color="#BF9500"/><stop offset="1" stop-color="#BF9500"/></linearGradient><path fill="url(#SVGID_10_)" d="M96.56 367.86c0.59-3.26 0.54-4.5 0.54-4.5s1.22-9.89-8.64-31.53c-1.27-2.79-2.83-5.81-4.49-8.83 -2.25-1.23-4.37-2.61-6.32-4.13 2.53 4.37 4.96 8.88 6.81 12.95 9.86 21.64 11.64 31.54 11.64 31.54s0.21 2.07 0.52 5.07L96.56 367.86z"/></g>

<circle fill="#F4EFD7" cx="105.64" cy="262.73" r="5.3">
	<animateTransform attributeName="transform"
		 type="translate"
		 from="0,0"
		 to="0,-100"
		 dur="5s"
		 repeatCount="indefinite"
		 id="bubble-17-move"
		/>
	<animate attributeName="opacity"
                          from="1"
                          to="0"
                          dur="5s"
                          values="1; 0; 1"
    					  keyTimes="0; 0.5; 1"
                          repeatCount="indefinite"
                          begin="bubble-17-move.begin + 2.5s"
                           />
</circle>
<circle fill="#F4EFD7" cx="148.64" cy="248.73" r="5.3">
	<animateTransform attributeName="transform"
		 type="translate"
		 from="0,0"
		 to="0,-100"
		 dur="5s"
		 repeatCount="indefinite"
		 id="bubble-16-move"
		/>
	<animate attributeName="opacity"
                          from="1"
                          to="0"
                          dur="5s"
                          values="1; 0; 1"
    					  keyTimes="0; 0.5; 1"
                          repeatCount="indefinite"
                          begin="bubble-16-move.begin + 2.5s"
                           />
</circle>
<circle fill="#F4EFD7" cx="94.64" cy="183.73" r="5.3">
	<animateTransform attributeName="transform"
		 type="translate"
		 from="0,0"
		 to="0,-100"
		 dur="5s"
		 repeatCount="indefinite"
		 id="bubble-15-move"
		/>
	<animate attributeName="opacity"
                          from="1"
                          to="0"
                          dur="5s"
                          values="1; 0; 1"
    					  keyTimes="0; 0.5; 1"
                          repeatCount="indefinite"
                          begin="bubble-15-move.begin + 2.5s"
                           />
</circle>
<circle fill="#F4EFD7" cx="131.01" cy="283.63" r="6.67">
	<animateTransform attributeName="transform"
		 type="translate"
		 from="0,0"
		 to="0,-100"
		 dur="5s"
		 repeatCount="indefinite"
		 id="bubble-14-move"
		/>
	<animate attributeName="opacity"
                          from="1"
                          to="0"
                          dur="5s"
                          values="1; 0; 1"
    					  keyTimes="0; 0.5; 1"
                          repeatCount="indefinite"
                          begin="bubble-14-move.begin + 2.5s"
                           />
</circle>
<circle fill="#F4EFD7" cx="87.76" cy="283.38" r="4.42">
	<animateTransform attributeName="transform"
		 type="translate"
		 from="0,0"
		 to="0,-100"
		 dur="5s"
		 repeatCount="indefinite"
		 id="bubble-13-move"
		/>
	<animate attributeName="opacity"
                          from="1"
                          to="0"
                          dur="5s"
                          values="1; 0; 1"
    					  keyTimes="0; 0.5; 1"
                          repeatCount="indefinite"
                          begin="bubble-13-move.begin + 2.5s"
                           />
</circle>
<circle fill="#F4EFD7" cx="62.76" cy="210.38" r="4.42">
	<animateTransform attributeName="transform"
		 type="translate"
		 from="0,0"
		 to="0,-100"
		 dur="5s"
		 repeatCount="indefinite"
		 id="bubble-12-move"
		/>
	<animate attributeName="opacity"
                          from="1"
                          to="0"
                          dur="5s"
                          values="1; 0; 1"
    					  keyTimes="0; 0.5; 1"
                          repeatCount="indefinite"
                          begin="bubble-12-move.begin + 2.5s"
                           />
</circle>
<circle fill="#F4EFD7" cx="81.76" cy="122.38" r="4.42">
	<animateTransform attributeName="transform"
		 type="translate"
		 from="0,0"
		 to="0,-30"
		 dur="2s"
		 repeatCount="indefinite"
		 id="bubble-11-move"
		/>
	<animate attributeName="opacity"
                          from="1"
                          to="0"
                          dur="2s"
                          values="1; 0; 1"
    					  keyTimes="0; 0.5; 1"
                          repeatCount="indefinite"
                          begin="bubble-11-move.begin + 1s"
                           />
</circle>
<circle fill="#F4EFD7" cx="124.76" cy="246.38" r="4.42">
	<animateTransform attributeName="transform"
		 type="translate"
		 from="0,0"
		 to="0,-50"
		 dur="2s"
		 repeatCount="indefinite"
		 id="bubble-10-move"
		/>
	<animate attributeName="opacity"
                          from="1"
                          to="0"
                          dur="2s"
                          values="1; 0; 1"
    					  keyTimes="0; 0.5; 1"
                          repeatCount="indefinite"
                          begin="bubble-10-move.begin + 1s"
                           />
</circle>
<circle fill="#F4EFD7" cx="154.76" cy="219.38" r="4.42">
	<animateTransform attributeName="transform"
		 type="translate"
		 from="0,0"
		 to="0,-100"
		 dur="5s"
		 repeatCount="indefinite"
		 id="bubble-9-move"
		/>
	<animate attributeName="opacity"
                          from="1"
                          to="0"
                          dur="5s"
                          values="1; 0; 1"
    					  keyTimes="0; 0.5; 1"
                          repeatCount="indefinite"
                          begin="bubble-9-move.begin + 2.5s"
                           />
</circle>
<circle fill="#F4EFD7" cx="140.76" cy="171.38" r="4.42">
	<animateTransform attributeName="transform"
		 type="translate"
		 from="0,0"
		 to="0,-80"
		 dur="2s"
		 repeatCount="indefinite"
		 id="bubble-8-move"
		/>
	<animate attributeName="opacity"
                          from="1"
                          to="0"
                          dur="5s"
                          values="1; 0; 1"
    					  keyTimes="0; 0.5; 1"
                          repeatCount="indefinite"
                          begin="bubble-8-move.begin + 1s"
                           />
</circle>
<circle fill="#F4EFD7" cx="124.5" cy="206.12" r="3.16">
	<animateTransform attributeName="transform"
		 type="translate"
		 from="0,0"
		 to="0,-100"
		 dur="5s"
		 repeatCount="indefinite"
		 id="bubble-7-move"
		/>
	<animate attributeName="opacity"
                          from="1"
                          to="0"
                          dur="5s"
                          values="1; 0; 1"
    					  keyTimes="0; 0.5; 1"
                          repeatCount="indefinite"
                          begin="bubble-7-move.begin + 2.5s"
                           />
</circle>
<circle fill="#F4EFD7" cx="137.5" cy="102.12" r="3.16">
	<animateTransform attributeName="transform"
		 type="translate"
		 from="0,0"
		 to="0,-15"
		 dur="1s"
		 repeatCount="indefinite"
		 id="bubble-7-move"
		/>
	<animate attributeName="opacity"
                          from="1"
                          to="0"
                          dur="5s"
                          values="1; 0; 1"
    					  keyTimes="0; 0.5; 1"
                          repeatCount="indefinite"
                          begin="bubble-7-move.begin + .5s"
                           />
</circle>
<circle fill="#F4EFD7" cx="159.5" cy="137.12" r="3.16">
	<animateTransform attributeName="transform"
		 type="translate"
		 from="0,0"
		 to="0,-20"
		 dur="3s"
		 repeatCount="indefinite"
		 id="bubble-6-move"
		/>
	<animate attributeName="opacity"
                          from="1"
                          to="0"
                          dur="3s"
                          values="1; 0; 1"
    					  keyTimes="0; 0.5; 1"
                          repeatCount="indefinite"
                          begin="bubble-6-move.begin + 1.5s"
                           />
</circle>
<circle fill="#F4EFD7" cx="91.5" cy="231.12" r="3.16">
	<animateTransform attributeName="transform"
		 type="translate"
		 from="0,0"
		 to="0,-160"
		 dur="4s"
		 repeatCount="indefinite"
		 id="bubble-5-move"
		/>
	<animate attributeName="opacity"
                          from="1"
                          to="0"
                          dur="5s"
                          values="1; 0; 1"
    					  keyTimes="0; 0.5; 1"
                          repeatCount="indefinite"
                          begin="bubble-5-move.begin + 2s"
                           />
</circle>
<circle fill="#F4EFD7" cx="72.5" cy="249.12" r="3.16">
	<animateTransform attributeName="transform"
		 type="translate"
		 from="0,0"
		 to="0,-120"
		 dur="2s"
		 repeatCount="indefinite"
		 id="bubble-4-move"
		/>
	<animate attributeName="opacity"
                          from="1"
                          to="0"
                          dur="5s"
                          values="1; 0; 1"
    					  keyTimes="0; 0.5; 1"
                          repeatCount="indefinite"
                          begin="bubble-4-move.begin + 1s"
                           />
</circle>
<circle fill="#F4EFD7" cx="67.5" cy="151.12" r="3.16">
	<animateTransform attributeName="transform"
		 type="translate"
		 from="0,0"
		 to="0,-50"
		 dur="3s"
		 repeatCount="indefinite"
		 id="bubble-3-move"
		/>
	<animate attributeName="opacity"
                          from="1"
                          to="0"
                          dur="3s"
                          values="1; 0; 1"
    					  keyTimes="0; 0.5; 1"
                          repeatCount="indefinite"
                          begin="bubble-3-move.begin + 1.5s"
                           />
</circle>
<circle fill="#F4EFD7" cx="53.5" cy="102.12" r="3.16">
	<animateTransform attributeName="transform"
		 type="translate"
		 from="0,0"
		 to="0,-20"
		 dur="1s"
		 repeatCount="indefinite"
		 id="bubble-2-move"
		/>
	<animate attributeName="opacity"
                          from="1"
                          to="0"
                          dur="1s"
                          values="1; 0; 1"
    					  keyTimes="0; 0.5; 1"
                          repeatCount="indefinite"
                          begin="bubble-2-move.begin + .5s"
                           />
</circle>
<circle fill="#F4EFD7" cx="106.07" cy="302.69" r="5.74">
	<animateTransform attributeName="transform"
		 type="translate"
		 from="0,0"
		 to="0,-240"
		 dur="3s"
		 repeatCount="indefinite"
		 id="bubble-1-move"
		/>
	<animate attributeName="opacity"
                          from="1"
                          to="0"
                          dur="3s"
                          values="1; 0; 1"
    					  keyTimes="0; 0.5; 1"
                          repeatCount="indefinite"
                          begin="bubble-1-move.begin + 1.5s"
                           />
</circle>
</svg>