<svg xmlns="http://www.w3.org/2000/svg" version="1.1" id="Layer_1" x="0" y="0" viewBox="0 0 243.9 598.12" enable-background="new 0 0 243.898 598.116" xml:space="preserve"><style>.s0{stop-color:#F0F5FF;}.s1{stop-color:#DCE1FF;}.s2{stop-color:#DCE6FF;}.s3{stop-color:#2A0500;}.s4{stop-color:#540400;}.s5{stop-color:#2A0800;}.s6{stop-color:#B71C45;}.s7{stop-color:#891C45;}.s8{stop-color:#B21C45;}.s9{stop-color:#570822;}.s10{stop-color:#7F0400;}</style><linearGradient id="SVGID_1_" gradientUnits="userSpaceOnUse" x1="12.59" y1="584.24" x2="230.5" y2="584.24"><stop offset="0.12" stop-color="#F0F5FF"/><stop offset="0.29" stop-color="#DCE1FF"/><stop offset="0.75" stop-color="#DCE6FF"/><stop offset="1" stop-color="#EBE6FF"/></linearGradient><path fill="url(#SVGID_1_)" d="M230.28 582.52c0.13-0.23 0.22-0.61 0.22-0.84 0-6.2-48.78-11.31-108.96-11.31 -60.17 0-108.96 4.99-108.96 11.19 0 0.23 0.09 0.45 0.23 0.68l1.43 4.35c0 6.2 48.03 11.53 107.28 11.53 58.8 0 106.52-6.79 107.25-10.79h0.03L230.28 582.52z"/><linearGradient id="SVGID_2_" gradientUnits="userSpaceOnUse" x1="12.96" y1="590.38" x2="230.17" y2="590.38"><stop offset="0" stop-color="#DCE6FF"/><stop offset="0.17" stop-color="#DCE1FF"/><stop offset="1" stop-color="#E1DCFF"/></linearGradient><path fill="url(#SVGID_2_)" d="M121.53 593.17c-56.75 0-103.36-4.7-108.58-10.52l1.29 3.93c0 6.21 48.03 11.54 107.28 11.54 58.8 0 106.52-6.79 107.25-10.79h0.03l1.36-4.48C225.53 587.75 178.69 593.17 121.53 593.17z"/><linearGradient id="SVGID_3_" gradientUnits="userSpaceOnUse" x1="0" y1="291.88" x2="243.9" y2="291.88"><stop offset="0.29" stop-color="#F0F5FF"/><stop offset="0.75" stop-color="#DCE6FF"/><stop offset="1" stop-color="#F0F5FF"/></linearGradient><path fill="url(#SVGID_3_)" d="M137.15 536.59c-1.58-15.76-6.22-66.02-6.22-114.01 0-57.85 4.47-80.88 4.47-80.88s1.99-12.36 6.34-22.47c4.35-10.11 29.41-31.94 29.41-31.94l-0.02-0.01c33.95-28.65 72.77-85.82 72.77-151.71 0-9.88-1.65-30.15-1.71-30.73 -4-37.61-7.74-66.37-19.92-96.01 -2.15-0.36-28.38-8.85-97.98-8.85 -75.7 0-100.38 8.07-102.6 8.43 -11.73 27.23-16 58.59-19.96 96.5 -0.08 0.75-0.17 1.5-0.25 2.25 0 0.01-0.01 0.02-0.01 0.02C0.51 116.44 0 125.92 0 135.58c0 57.5 32.84 108.39 59.85 139.45l0 0c0 0 0.05 0.05 0.12 0.14 0.15 0.17 0.31 0.34 0.46 0.52 2.82 3.17 32.19 32.88 39.84 43.55 7.64 10.67 8.79 23 8.79 23s3.34 26.98 3.34 80.9c0 44.94-3.51 97.26-4.68 113.45 0 0-2.34 14.32-8.8 20.78 -6.46 6.46-43.81 19.66-43.81 19.66s2.81 6.74 67.4 6.74c64.59 0 67.4-6.74 67.4-6.74s-37.35-12.07-44.93-19.66C137.39 549.79 137.15 536.59 137.15 536.59z"/><linearGradient id="SVGID_4_" gradientUnits="userSpaceOnUse" x1="94.81" y1="323.79" x2="149.49" y2="314.15"><stop offset="0.29" stop-color="#2A0500"/><stop offset="0.75" stop-color="#540400"/><stop offset="1" stop-color="#2A0800"/></linearGradient><path fill="url(#SVGID_4_)" d="M134.75 332.69c0 0-1.27-5.9-13.2-5.9 -11.93 0-12.7 5.9-12.7 5.9l-6.68-13.43 -10.08-10.93h56.38l-8.42 10.73L134.75 332.69z"/><linearGradient id="SVGID_5_" gradientUnits="userSpaceOnUse" x1="17.21" y1="233.42" x2="251.03" y2="192.19"><stop offset="0" stop-color="#B71C45"/><stop offset="0.28" stop-color="#891C45"/><stop offset="0.82" stop-color="#B21C45"/></linearGradient>

<path fill="url(#SVGID_5_)" d="M145.57 308.91c8.19-10.63 24.44-24.59 24.44-24.59l-0.03-0.01c32.91-27.77 71.07-82.98 71.42-146.71 -23.93-0.58-81.5-0.95-121.18-0.95 -45.74 0-94.43 0.49-117.73 1.24C2.85 193.33 35.19 242.31 61.29 272.35l0 0c0 0 0.05 0.05 0.11 0.13 0.15 0.17 0.3 0.34 0.45 0.51 2.29 2.57 22.49 23.04 33.53 35.87 0 0 5.59 1.55 24.63 1.55C139.07 310.4 145.57 308.91 145.57 308.91z">
	<animateTransform attributeName="transform"
                          type="rotate"
                          from="0 123 222"
                          to="1 123 222"
                          values="0 123 222; 1 123 222; -1 123 222; 0 123 222 "
                          keyTimes="0; 0.25; 0.75; 1"
                          dur="5s"
                          repeatCount="indefinite"
                          id="icecube-twist"/>
</path>

<path fill="#FFFFFF" d="M59.68 577.03c0 0 37.35-13.2 43.81-19.66 6.46-6.46 7.28-20.78 7.28-20.78 1.17-16.18 3.15-68.51 3.15-113.45 0-53.92-1.81-80.9-1.81-80.9s0.37-12.33-7.27-23c-7.64-10.67-37.01-40.38-39.84-43.55 -0.15-0.18-0.31-0.34-0.46-0.52 -0.07-0.08-0.12-0.13-0.12-0.13l0 0C37.42 243.97 4.57 193.09 4.57 135.58c0-9.67 0.51-19.14 1.47-28.38 0-0.01 0.01-0.02 0.01-0.02 0.08-0.75 0.17-1.5 0.25-2.25 3.96-37.91 8.24-69.27 19.96-96.5 2.15-0.35 57.85-8.23 98.75-8.43 -0.24 0-0.48 0-0.72 0C82.12-0.11 23.9 8.07 21.69 8.43c-11.73 27.23-16 58.59-19.96 96.5 -0.08 0.75-0.17 1.5-0.25 2.25 0 0.01-0.01 0.02-0.01 0.02C0.51 116.44 0 125.92 0 135.58c0 57.5 32.84 108.39 59.85 139.45l0 0c0 0 0.05 0.05 0.12 0.14 0.15 0.17 0.31 0.34 0.46 0.52 2.82 3.17 32.19 32.88 39.84 43.55 7.64 10.67 8.79 23 8.79 23s3.34 26.98 3.34 80.9c0 44.94-3.51 97.26-4.68 113.45 0 0-2.34 14.32-8.8 20.78 -6.46 6.46-43.81 19.66-43.81 19.66s2.81 6.74 67.4 6.74c0.77 0 1.53 0 2.29 0C62.43 583.6 59.68 577.03 59.68 577.03z"/><linearGradient id="SVGID_6_" gradientUnits="userSpaceOnUse" x1="120.22" y1="291.88" x2="243.9" y2="291.88"><stop offset="0" stop-color="#EAECFF"/><stop offset="0.66" stop-color="#C9D5FF"/></linearGradient><path fill="url(#SVGID_6_)" d="M137.15 536.59c-1.58-15.76-6.22-66.02-6.22-114.01 0-57.85 4.47-80.88 4.47-80.88s1.99-12.36 6.34-22.47c4.35-10.11 29.41-31.94 29.41-31.94l-0.02-0.01c33.95-28.65 72.77-85.82 72.77-151.71 0-9.88-1.65-30.15-1.71-30.73 -4-37.61-7.74-66.37-19.92-96.01 -2.15-0.36-57.38-8.74-97.98-8.85C123 0 121.72 0 120.43 0.01c40.35 0.17 95.12 8.48 97.26 8.84 12.18 29.64 15.93 58.4 19.92 96.01 0.06 0.57 1.71 20.85 1.71 30.73 0 65.89-38.82 123.06-72.77 151.71l0.03 0.01c0 0-25.06 21.83-29.41 31.94 -4.35 10.11-4.82 22.47-4.82 22.47s-2.95 23.02-2.95 80.88c0 47.99 3.11 98.25 4.69 114.01 0 0-1.28 13.2 6.3 20.78s44.93 19.66 44.93 19.66 -2.75 6.58-65.11 6.73c0.76 0 1.51 0 2.29 0 64.59 0 67.4-6.74 67.4-6.74s-37.35-12.07-44.93-19.66C137.39 549.79 137.15 536.59 137.15 536.59z"/><linearGradient id="SVGID_7_" gradientUnits="userSpaceOnUse" x1="143.9" y1="223.36" x2="243.87" y2="223.36"><stop offset="0.29" stop-color="#570822"/><stop offset="0.75" stop-color="#7F0400"/><stop offset="1" stop-color="#2A0800"/></linearGradient><path fill="url(#SVGID_7_)" d="M243.87 137.64l-4.93-0.12c-0.49 65.02-38.79 119.9-72.38 148.25l-1.5 1.53c0 0-12.41 12.34-21.16 21.9l5.59-0.89c8.76-9.56 21.66-21 21.66-21l-0.02-0.01C204.72 258.94 243.39 202.66 243.87 137.64z"/><linearGradient id="SVGID_8_" gradientUnits="userSpaceOnUse" x1="97.15" y1="223.26" x2="0.02" y2="223.26"><stop offset="0.29" stop-color="#570822"/><stop offset="0.75" stop-color="#7F0400"/><stop offset="1" stop-color="#2A0800"/></linearGradient><path fill="url(#SVGID_8_)" d="M65 275.69c-0.15-0.18-0.31-0.34-0.46-0.52 -0.07-0.08-0.12-0.13-0.12-0.13l0-0.24C37.74 244.1 5.45 194.33 5.04 137.33H0.02c0.42 57 33.15 106.77 59.83 137.47l0 0.12c0 0 0.05 0.11 0.12 0.19 0.15 0.18 0.31 0.37 0.46 0.55 2.11 2.37 19.1 19.63 30.72 32.63l6.01 0.9C85.54 296.19 67.11 278.07 65 275.69z"/><linearGradient id="SVGID_9_" gradientUnits="userSpaceOnUse" x1="109.2" y1="320.89" x2="132.36" y2="316.8"><stop offset="0" stop-color="#B71C45"/><stop offset="0.28" stop-color="#891C45"/><stop offset="0.82" stop-color="#B21C45"/></linearGradient><ellipse fill="url(#SVGID_9_)" cx="120.78" cy="318.85" rx="11.94" ry="1.64"/><linearGradient id="SVGID_10_" gradientUnits="userSpaceOnUse" x1="131.88" y1="339.62" x2="158.27" y2="339.62"><stop offset="0.29" stop-color="#2A0500"/><stop offset="0.75" stop-color="#540400"/><stop offset="1" stop-color="#2A0800"/></linearGradient><path fill="url(#SVGID_10_)" d="M131.88 379.92c1.31-26.83 3.52-38.22 3.52-38.22s1.99-12.36 6.34-22.47c1.26-2.93 4.27-6.85 7.9-10.93l8.63-8.99c0 0-3.14 1.65-6.19 3.65 -3.05 2-7.02 5.33-7.02 5.33 -3.63 4.08-6.63 8-7.9 10.93 -4.35 10.11-4.82 22.47-4.82 22.47S132.75 353.09 131.88 379.92L131.88 379.92z"/><linearGradient id="SVGID_11_" gradientUnits="userSpaceOnUse" x1="82.77" y1="338.02" x2="112.11" y2="338.02"><stop offset="0.29" stop-color="#2A0500"/><stop offset="0.75" stop-color="#540400"/><stop offset="1" stop-color="#2A0800"/></linearGradient><path fill="url(#SVGID_11_)" d="M100.26 319.24c7.64 10.67 8.79 23 8.79 23s1.43 11.55 2.42 34.64l0 0c-0.54-23.08 0.63-34.64 0.63-34.64s0.09-3.08-0.77-7.5c-0.86-4.42-2.68-10.17-6.5-15.5 -2.02-2.81-5.54-6.96-9.7-11.58 0 0-2.76-2.4-6-4.59 -3.24-2.19-6.36-3.9-6.36-3.9C90.05 306.96 97.06 314.77 100.26 319.24z"/></svg>