<svg xmlns="http://www.w3.org/2000/svg" version="1.1" id="Layer_1" x="0" y="0" viewBox="0 0 295.58 302.96" enable-background="new 0 0 295.584 302.958" xml:space="preserve"><style>.s0{stop-color:#F0F5FF;}.s1{stop-color:#DCE6FF;}.s2{stop-color:#C87400;}.s3{stop-color:#E68B00;}.s4{stop-color:#BF6000;}.s5{stop-color:#FFFFFF;}.s6{stop-color:#E6EBFF;}

@-webkit-keyframes melt {
  0%   { transform: scale(1); }
  100% { transform: scale(0); }
}
@-moz-keyframes melt {
  0%   { transform: scale(1); }
  100% { transform: scale(0); }
}
@-o-keyframes melt {
  0%   { transform: scale(1); }
  100% { transform: scale(0); }
}
@keyframes melt {
  0%   { transform: scale(1); }
  100% { transform: scale(0); }
}

#ice-wrapper{
  -webkit-animation: melt 200s 1; /* Safari 4+ */
  -moz-animation:    melt 200s 1; /* Fx 5+ */
  -o-animation:      melt 200s 1; /* Opera 12+ */
  animation:         melt 200s 1; /* IE 10+, Fx 29+ */
  transform-origin: center;
}

</style><g><linearGradient id="SVGID_1_" gradientUnits="userSpaceOnUse" x1="0" y1="149.96" x2="295.21" y2="149.96"><stop offset="0.29" stop-color="#F0F5FF"/><stop offset="0.75" stop-color="#DCE6FF"/><stop offset="1" stop-color="#F0F5FF"/></linearGradient><path fill="url(#SVGID_1_)" d="M286.73 0H9.48C2.37 0 0.49 6.29 0 9.19l20.85 258.03c0 0 0.64 9.02 7.62 16s40.38 16.7 128.84 16.7c70.01 0 108.62-11.11 114.2-16.7 5.59-5.59 6.1-17.52 6.1-17.52L295.21 7.29C293.42 0.35 286.73 0 286.73 0z"/><linearGradient id="SVGID_2_" gradientUnits="userSpaceOnUse" x1="20.73" y1="263.75" x2="277.61" y2="263.75"><stop offset="0.12" stop-color="#F0F5FF"/><stop offset="0.29" stop-color="#DCE1FF"/><stop offset="0.75" stop-color="#DCE6FF"/><stop offset="1" stop-color="#EBE6FF"/></linearGradient><path fill="url(#SVGID_2_)" d="M277.61 224.55c0 0-0.51 11.94-6.09 17.52 -5.59 5.59-44.19 16.7-114.2 16.7 -88.46 0-121.92-9.71-128.9-16.7 -6.98-6.98-7.68-16-7.68-16v44.19c0 0 0.69 9.02 7.68 16 6.98 6.98 40.41 16.7 128.87 16.7 70.01 0 108.63-11.11 114.22-16.7 5.59-5.59 6.1-17.52 6.1-17.52L277.61 224.55z"/><linearGradient id="SVGID_3_" gradientUnits="userSpaceOnUse" x1="27.66" y1="185.95" x2="268.21" y2="185.95"><stop offset="0.29" stop-color="#C87400"/><stop offset="0.73" stop-color="#E68B00"/><stop offset="1" stop-color="#BF6000"/></linearGradient><path fill="url(#SVGID_3_)" d="M27.66 141.08L34.02 241h229.89l4.31-100.68C268.62 128.13 26.36 127.13 27.66 141.08z"/><linearGradient id="SVGID_4_" gradientUnits="userSpaceOnUse" x1="33.72" y1="240.04" x2="263.91" y2="240.04"><stop offset="0.01" stop-color="#E68B00"/><stop offset="0.19" stop-color="#E48A00"/><stop offset="0.67" stop-color="#C87400"/><stop offset="1" stop-color="#BF6000"/></linearGradient><ellipse fill="url(#SVGID_4_)" cx="148.81" cy="240.04" rx="115.09" ry="14.3"/><linearGradient id="SVGID_5_" gradientUnits="userSpaceOnUse" x1="0.38" y1="151.47" x2="295.58" y2="151.47"><stop offset="0.12" stop-color="#FFFFFF"/><stop offset="0.29" stop-color="#F0F5FF"/><stop offset="0.75" stop-color="#E6EBFF"/><stop offset="1" stop-color="#FFFFFF"/></linearGradient><path fill="url(#SVGID_5_)" d="M293.6 3.79l-17.85 257.18c0 0-0.5 11.72-5.98 17.21 -5.49 5.49-43.4 16.4-112.15 16.4 -86.87 0-119.66-9.54-126.52-16.4 -6.86-6.86-7.48-15.71-7.48-15.71L2.64 3.03C1.46 4.43 0.78 6.08 0.38 7.5l20.97 259.72c0 0 0.64 9.02 7.62 16s40.38 16.7 128.84 16.7c70.01 0 108.62-11.11 114.2-16.7 5.59-5.59 6.1-17.52 6.1-17.52L295.58 9.49C295.36 6.99 294.6 5.15 293.6 3.79z"/><radialGradient id="SVGID_6_" cx="148.07" cy="269.28" r="35.45" gradientTransform="matrix(1 0 0 0.2806 0 193.7322)" gradientUnits="userSpaceOnUse"><stop offset="0.29" stop-color="#E6EBFF"/><stop offset="1" stop-color="#D2DCFF"/></radialGradient><path fill="url(#SVGID_6_)" d="M101.19 257.23c-1.16 1.63-1.79 3.34-1.79 5.11 0 10.49 21.79 19 48.67 19 26.88 0 48.67-8.51 48.67-19 0-1.66-0.55-3.27-1.58-4.81 -11.64 0.78-24.58 1.25-38.85 1.25C134.83 258.77 116.6 258.19 101.19 257.23z"/><polygon opacity="0.4" fill="#FFFFFF" points="110.73 253.97 67.73 250.87 50.73 2 110.73 2 "/><path fill="#FFFFFF" d="M4.32 1.49C24.95 2.95 83.6 4 152.73 4c60.61 0 113.16-0.81 139.1-1.99C289.41 0.14 286.73 0 286.73 0H9.48C7.31 0 5.63 0.59 4.32 1.49z"/></g>

<g id="ice-wrapper">
<g>
<g id="icecube" opacity="0.9">
    <animateTransform attributeName="transform"
                          type="translate"
                          from="0,8"
                          to="0,15"
                          values="0,8; 0,15; 0,8"
                          keyTimes="0; 0.5; 1"
                          dur="5s"
                          repeatCount="indefinite"
                          id="icecube-bob"/>
	<path fill="#FFFFFF" d="M186.73 137h-76c-4.42 0-8 3.58-8 8v70c0 4.42 3.58 8 8 8h76c4.42 0 8-3.58 8-8v-70C194.73 140.58 191.15 137 186.73 137zM190.73 212.58c0 4.1-3.32 7.42-7.42 7.42h-70.15c-4.1 0-7.42-3.32-7.42-7.42v-65.15c0-4.1 3.32-7.42 7.42-7.42h70.15c4.1 0 7.42 3.32 7.42 7.42V212.58z"/><linearGradient id="SVGID_7_" gradientUnits="userSpaceOnUse" x1="105.73" y1="180" x2="190.73" y2="180"><stop offset="0.12" stop-color="#FFFFFF"/><stop offset="0.29" stop-color="#F0F5FF"/><stop offset="0.75" stop-color="#E6EBFF"/><stop offset="1" stop-color="#FFFFFF"/></linearGradient><path fill="url(#SVGID_7_)" d="M190.73 212.58c0 4.1-3.32 7.42-7.42 7.42h-70.15c-4.1 0-7.42-3.32-7.42-7.42v-65.15c0-4.1 3.32-7.42 7.42-7.42h70.15c4.1 0 7.42 3.32 7.42 7.42V212.58z"/>
</g>
<animateTransform attributeName="transform"
                          type="rotate"
                          from="0 140 175"
                          to="3 155 190"
                          values="0 140 175; 3 140 175; -1 140 175; 0 140 175 "
                          keyTimes="0; 0.5; 0.75; 1"
                          dur="10s"
                          repeatCount="indefinite"
                          id="icecube-twist"/>
</g>
</g>
</svg>